<?xml version="1.0" encoding="UTF-8" standalone="no"?>
<!DOCTYPE svg PUBLIC "-//W3C//DTD SVG 1.1//EN" "http://www.w3.org/Graphics/SVG/1.1/DTD/svg11.dtd">
<svg width="100%" height="100%" viewBox="0 0 64 64" version="1.1" xmlns="http://www.w3.org/2000/svg" xmlns:xlink="http://www.w3.org/1999/xlink" xml:space="preserve" xmlns:serif="http://www.serif.com/" style="fill-rule:evenodd;clip-rule:evenodd;stroke-linejoin:round;stroke-miterlimit:2;">
    <g transform="matrix(1.016949,0,0,0.690909,-0.033898,10.927273)">
        <path d="M56.058,3C57.369,3 58.626,3.766 59.553,5.13C60.479,6.494 61,8.345 61,10.274C61,20.806 61,40.194 61,50.726C61,52.655 60.479,54.506 59.553,55.87C58.626,57.234 57.369,58 56.058,58C44.94,58 18.06,58 6.942,58C5.631,58 4.374,57.234 3.447,55.87C2.521,54.506 2,52.655 2,50.726C2,40.194 2,20.806 2,10.274C2,8.345 2.521,6.494 3.447,5.13C4.374,3.766 5.631,3 6.942,3C18.06,3 44.94,3 56.058,3Z" style="fill:rgb(20,20,20);"/>
    </g>
    <g transform="matrix(1,0,0,1,-2,-1.926224)">
        <g transform="matrix(0.450132,0,0,0.450132,45.096026,32.596026)">
            <path d="M12.983,21.186C12.895,21.657 12.48,22.002 12,22.002C11.52,22.002 11.105,21.657 11.017,21.186C10.312,16.993 7.007,13.688 2.814,12.983C2.343,12.895 1.998,12.48 1.998,12C1.998,11.52 2.343,11.105 2.814,11.017C7.007,10.312 10.312,7.007 11.017,2.814C11.105,2.343 11.52,1.998 12,1.998C12.48,1.998 12.895,2.343 12.983,2.814C13.688,7.007 16.993,10.312 21.186,11.017C21.657,11.105 22.002,11.52 22.002,12C22.002,12.48 21.657,12.895 21.186,12.983C16.993,13.688 13.688,16.993 12.983,21.186" style="fill:white;fill-rule:nonzero;"/>
        </g>
        <g transform="matrix(1,0,0,0.772727,-6,9.443356)">
            <g transform="matrix(1,0,0,1,4,2)">
                <path d="M17.662,34.1C16.842,33.145 16.775,31.507 17.513,30.445C18.252,29.383 19.517,29.297 20.338,30.253L23.595,34.046L30.321,20.594C30.921,19.395 32.16,19.051 33.087,19.827C34.013,20.603 34.279,22.207 33.679,23.406L25.679,39.406C25.361,40.042 24.843,40.466 24.263,40.566C23.682,40.665 23.097,40.431 22.662,39.924L17.662,34.1Z" style="fill:url(#_Linear1);"/>
            </g>
            <g transform="matrix(1,0,0,1,4,2)">
                <path d="M30.321,23.406C29.721,22.207 29.987,20.603 30.913,19.827C31.84,19.051 33.079,19.395 33.679,20.594L39.833,32.902L46.23,17.371C46.749,16.11 47.962,15.632 48.936,16.304C49.91,16.976 50.279,18.545 49.76,19.806L41.765,39.217C41.432,40.027 40.792,40.547 40.085,40.586C39.377,40.625 38.706,40.176 38.321,39.406L30.321,23.406Z" style="fill:white;"/>
            </g>
        </g>
    </g>
    <defs>
        <linearGradient id="_Linear1" x1="0" y1="0" x2="1" y2="0" gradientUnits="userSpaceOnUse" gradientTransform="matrix(18,0,0,11,32,27)"><stop offset="0" style="stop-color:white;stop-opacity:1"/><stop offset="0.46" style="stop-color:rgb(75,75,75);stop-opacity:1"/><stop offset="0.77" style="stop-color:rgb(94,94,94);stop-opacity:1"/><stop offset="1" style="stop-color:rgb(103,103,103);stop-opacity:1"/></linearGradient>
    </defs>
</svg>
